<svg width="72" height="72" viewBox="0 0 72 72" fill="none" xmlns="http://www.w3.org/2000/svg">
<g id="Group 7">
<rect id="Rectangle 17" width="72" height="72" rx="16" fill="#F4FD53"/>
<line id="Line 9" x1="14" y1="49.5" x2="57" y2="49.5" stroke="#454545"/>
<path id="ER" d="M18.1562 42.7812H32.7031V43.9844H16.5156V22.2188H32.1562V23.6406H18.1562V32.0625H31.3906V33.4844H18.1562V42.7812ZM38.6094 23.6406V32.7188H46.4844C50.6406 32.7917 52.6823 31.2604 52.6094 28.125C52.6094 25.1354 50.5677 23.6406 46.4844 23.6406H38.6094ZM56.1094 43.9844H53.8125L45.7188 34.1406H38.6094V43.9844H36.9688V22.2188H47.0312C51.6979 22.3646 54.1406 24.3698 54.3594 28.2344C54.3594 31.9531 52.1354 33.9219 47.6875 34.1406L56.1094 43.9844Z" fill="#454545"/>
</g>
</svg>
